<?xml version="1.0" encoding="UTF-8"?>
<svg xmlns="http://www.w3.org/2000/svg" xmlns:xlink="http://www.w3.org/1999/xlink" width="32px" height="32px" viewBox="0 0 32 32" version="1.1">
<g id="surface1">
<path style=" stroke:none;fill-rule:nonzero;fill:rgb(0%,0%,0%);fill-opacity:1;" d="M 22.722656 4.570312 C 22.699219 4.644531 22.628906 4.804688 22.566406 4.925781 C 22.5 5.046875 22.429688 5.199219 22.40625 5.269531 C 22.382812 5.335938 22.273438 5.59375 22.15625 5.84375 C 22.039062 6.09375 21.933594 6.332031 21.921875 6.375 C 21.910156 6.417969 21.855469 6.539062 21.800781 6.640625 C 21.742188 6.742188 21.664062 6.914062 21.628906 7.015625 C 21.539062 7.25 21.402344 7.558594 21.230469 7.921875 C 21.160156 8.078125 21.085938 8.246094 21.074219 8.296875 C 21.0625 8.351562 20.976562 8.542969 20.886719 8.730469 C 20.796875 8.914062 20.710938 9.101562 20.699219 9.136719 C 20.679688 9.210938 20.421875 9.792969 20.375 9.882812 C 20.355469 9.914062 20.34375 9.949219 20.34375 9.96875 C 20.34375 9.988281 20.257812 10.175781 20.15625 10.386719 C 20.054688 10.601562 19.96875 10.792969 19.96875 10.820312 C 19.96875 10.84375 19.914062 10.980469 19.839844 11.128906 C 19.769531 11.273438 19.671875 11.496094 19.617188 11.625 C 19.570312 11.753906 19.511719 11.871094 19.496094 11.886719 C 19.480469 11.90625 19.46875 11.941406 19.46875 11.96875 C 19.46875 11.992188 19.441406 12.070312 19.402344 12.136719 C 19.347656 12.242188 19.28125 12.398438 18.996094 13.0625 C 18.960938 13.140625 18.914062 13.242188 18.890625 13.289062 C 18.867188 13.339844 18.84375 13.394531 18.84375 13.410156 C 18.84375 13.425781 18.773438 13.589844 18.683594 13.773438 C 18.597656 13.960938 18.496094 14.195312 18.460938 14.296875 C 18.429688 14.398438 18.34375 14.59375 18.273438 14.730469 C 18.207031 14.867188 18.101562 15.101562 18.046875 15.253906 C 17.992188 15.398438 17.902344 15.601562 17.855469 15.691406 C 17.777344 15.847656 17.664062 16.121094 17.339844 16.914062 C 17.210938 17.230469 17.082031 17.46875 17.035156 17.46875 C 17.023438 17.46875 16.984375 17.386719 16.957031 17.289062 C 16.925781 17.191406 16.820312 16.941406 16.726562 16.734375 C 16.632812 16.527344 16.539062 16.304688 16.523438 16.238281 C 16.507812 16.171875 16.429688 15.976562 16.347656 15.800781 C 16.261719 15.625 16.183594 15.449219 16.171875 15.40625 C 16.15625 15.363281 16.105469 15.25 16.058594 15.152344 C 16.007812 15.054688 15.941406 14.894531 15.910156 14.789062 C 15.875 14.6875 15.773438 14.4375 15.675781 14.238281 C 15.578125 14.035156 15.5 13.859375 15.5 13.847656 C 15.5 13.816406 15.320312 13.386719 15.253906 13.257812 C 15.128906 13.023438 15.0625 12.871094 15.0625 12.824219 C 15.0625 12.800781 14.976562 12.601562 14.875 12.382812 C 14.773438 12.167969 14.6875 11.980469 14.6875 11.96875 C 14.6875 11.953125 14.636719 11.84375 14.578125 11.726562 C 14.519531 11.605469 14.429688 11.40625 14.378906 11.277344 C 14.214844 10.867188 14.132812 10.683594 14.097656 10.648438 C 14.078125 10.628906 14.0625 10.601562 14.0625 10.585938 C 14.0625 10.574219 14.027344 10.488281 13.984375 10.394531 C 13.941406 10.300781 13.90625 10.203125 13.90625 10.179688 C 13.90625 10.160156 13.820312 9.972656 13.71875 9.769531 C 13.617188 9.5625 13.53125 9.378906 13.53125 9.351562 C 13.53125 9.332031 13.484375 9.210938 13.425781 9.085938 C 13.171875 8.550781 13.070312 8.320312 13.046875 8.25 C 13.035156 8.207031 12.984375 8.09375 12.9375 8 C 12.890625 7.90625 12.835938 7.773438 12.8125 7.703125 C 12.789062 7.632812 12.699219 7.421875 12.609375 7.234375 C 12.519531 7.042969 12.425781 6.839844 12.402344 6.78125 C 12.382812 6.722656 12.292969 6.523438 12.210938 6.347656 L 12.054688 6.023438 L 8.332031 6.042969 C 6.285156 6.054688 4.605469 6.0625 4.601562 6.0625 C 4.601562 6.0625 4.648438 6.179688 4.707031 6.320312 C 4.769531 6.460938 4.863281 6.675781 4.914062 6.796875 C 4.960938 6.914062 5.070312 7.15625 5.15625 7.328125 C 5.238281 7.5 5.316406 7.675781 5.328125 7.71875 C 5.339844 7.761719 5.40625 7.921875 5.476562 8.078125 C 5.542969 8.230469 5.625 8.414062 5.65625 8.484375 C 5.683594 8.554688 5.730469 8.660156 5.757812 8.71875 C 5.785156 8.777344 5.839844 8.914062 5.882812 9.015625 C 5.929688 9.117188 6.070312 9.429688 6.195312 9.703125 C 6.324219 9.976562 6.445312 10.257812 6.46875 10.328125 C 6.492188 10.398438 6.585938 10.601562 6.675781 10.785156 C 6.769531 10.96875 6.84375 11.128906 6.84375 11.140625 C 6.84375 11.164062 6.902344 11.304688 7.066406 11.648438 C 7.132812 11.792969 7.1875 11.925781 7.1875 11.941406 C 7.1875 11.957031 7.230469 12.058594 7.285156 12.164062 C 7.390625 12.375 7.550781 12.742188 7.59375 12.882812 C 7.609375 12.929688 7.691406 13.113281 7.773438 13.289062 C 7.859375 13.464844 7.945312 13.664062 7.96875 13.734375 C 7.992188 13.804688 8.058594 13.964844 8.125 14.09375 C 8.1875 14.222656 8.28125 14.425781 8.328125 14.546875 C 8.375 14.664062 8.453125 14.851562 8.5 14.953125 C 8.546875 15.054688 8.617188 15.226562 8.652344 15.328125 C 8.71875 15.496094 8.835938 15.757812 8.984375 16.0625 C 9.011719 16.121094 9.054688 16.238281 9.082031 16.316406 C 9.105469 16.394531 9.1875 16.585938 9.265625 16.746094 C 9.34375 16.90625 9.441406 17.132812 9.480469 17.246094 C 9.523438 17.367188 9.585938 17.515625 9.621094 17.582031 C 9.660156 17.648438 9.742188 17.84375 9.816406 18.015625 C 9.882812 18.1875 9.996094 18.445312 10.066406 18.585938 C 10.132812 18.730469 10.1875 18.867188 10.1875 18.882812 C 10.1875 18.902344 10.273438 19.097656 10.371094 19.3125 C 10.476562 19.53125 10.570312 19.75 10.582031 19.800781 C 10.601562 19.894531 10.660156 20.011719 10.8125 20.3125 C 10.859375 20.40625 10.921875 20.554688 10.949219 20.648438 C 10.980469 20.738281 11.042969 20.890625 11.089844 20.992188 C 11.167969 21.152344 11.34375 21.558594 11.5 21.9375 C 11.53125 22.015625 11.664062 22.316406 11.789062 22.609375 C 11.917969 22.898438 12.050781 23.21875 12.078125 23.3125 C 12.109375 23.40625 12.195312 23.601562 12.269531 23.746094 C 12.34375 23.890625 12.429688 24.082031 12.457031 24.167969 C 12.503906 24.316406 12.570312 24.472656 12.769531 24.894531 C 12.808594 24.980469 12.84375 25.0625 12.84375 25.074219 C 12.84375 25.097656 12.890625 25.210938 13.097656 25.660156 C 13.164062 25.804688 13.21875 25.945312 13.21875 25.960938 C 13.21875 25.976562 13.257812 26.078125 13.308594 26.179688 C 13.460938 26.476562 13.585938 26.769531 13.609375 26.875 C 13.621094 26.929688 13.691406 27.085938 13.765625 27.226562 C 13.839844 27.367188 13.933594 27.570312 13.972656 27.667969 C 14.007812 27.773438 14.097656 27.960938 14.164062 28.085938 L 14.289062 28.3125 L 16.113281 28.3125 L 16.203125 28.117188 C 16.253906 28.007812 16.347656 27.8125 16.410156 27.679688 C 16.476562 27.546875 16.542969 27.382812 16.5625 27.320312 C 16.585938 27.257812 16.695312 27.011719 16.804688 26.78125 C 16.914062 26.550781 17.035156 26.289062 17.0625 26.203125 C 17.09375 26.117188 17.175781 25.929688 17.242188 25.78125 C 17.3125 25.632812 17.421875 25.382812 17.484375 25.21875 C 17.550781 25.054688 17.667969 24.78125 17.753906 24.613281 C 17.835938 24.445312 17.90625 24.28125 17.90625 24.253906 C 17.90625 24.226562 17.933594 24.144531 17.972656 24.078125 C 18.007812 24.007812 18.097656 23.8125 18.171875 23.640625 C 18.246094 23.46875 18.351562 23.226562 18.40625 23.109375 C 18.460938 22.988281 18.523438 22.824219 18.550781 22.746094 C 18.574219 22.667969 18.664062 22.460938 18.742188 22.292969 C 18.828125 22.121094 18.914062 21.929688 18.9375 21.859375 C 18.976562 21.726562 19.082031 21.476562 19.300781 20.996094 C 19.375 20.835938 19.4375 20.679688 19.4375 20.652344 C 19.4375 20.628906 19.460938 20.578125 19.484375 20.539062 C 19.511719 20.503906 19.570312 20.375 19.613281 20.257812 C 19.65625 20.144531 19.761719 19.902344 19.847656 19.726562 C 19.929688 19.554688 20.023438 19.335938 20.050781 19.242188 C 20.078125 19.152344 20.148438 18.988281 20.203125 18.875 C 20.335938 18.621094 20.417969 18.429688 20.46875 18.265625 C 20.492188 18.195312 20.519531 18.125 20.53125 18.109375 C 20.542969 18.089844 20.566406 18.042969 20.578125 18 C 20.589844 17.957031 20.65625 17.8125 20.722656 17.679688 C 20.785156 17.546875 20.855469 17.382812 20.878906 17.320312 C 20.898438 17.257812 20.96875 17.085938 21.035156 16.945312 C 21.101562 16.804688 21.15625 16.667969 21.15625 16.648438 C 21.15625 16.632812 21.226562 16.472656 21.308594 16.300781 C 21.507812 15.886719 21.5625 15.757812 21.5625 15.707031 C 21.5625 15.683594 21.640625 15.511719 21.734375 15.320312 C 21.828125 15.132812 21.914062 14.933594 21.925781 14.886719 C 21.9375 14.835938 22.050781 14.574219 22.179688 14.296875 C 22.304688 14.023438 22.40625 13.777344 22.40625 13.757812 C 22.40625 13.738281 22.476562 13.570312 22.5625 13.390625 C 22.648438 13.210938 22.71875 13.046875 22.71875 13.027344 C 22.71875 13.007812 22.753906 12.929688 22.796875 12.847656 C 22.917969 12.613281 23.0625 12.285156 23.0625 12.230469 C 23.0625 12.203125 23.082031 12.144531 23.105469 12.101562 C 23.210938 11.898438 23.378906 11.523438 23.484375 11.25 C 23.546875 11.085938 23.617188 10.925781 23.636719 10.890625 C 23.660156 10.855469 23.695312 10.773438 23.714844 10.710938 C 23.738281 10.648438 23.769531 10.59375 23.785156 10.59375 C 23.800781 10.59375 23.8125 10.566406 23.8125 10.535156 C 23.8125 10.5 23.824219 10.464844 23.839844 10.453125 C 23.855469 10.445312 23.882812 10.390625 23.894531 10.335938 C 23.914062 10.242188 24.027344 9.957031 24.09375 9.835938 C 24.113281 9.804688 24.160156 9.695312 24.199219 9.585938 C 24.273438 9.398438 24.347656 9.226562 24.464844 9 C 24.496094 8.941406 24.535156 8.839844 24.546875 8.78125 C 24.558594 8.722656 24.59375 8.621094 24.628906 8.5625 C 24.75 8.324219 24.992188 7.789062 25.011719 7.707031 C 25.023438 7.65625 25.117188 7.445312 25.214844 7.238281 C 25.316406 7.027344 25.410156 6.8125 25.417969 6.757812 C 25.429688 6.703125 25.472656 6.601562 25.507812 6.523438 C 25.539062 6.449219 25.617188 6.289062 25.671875 6.171875 C 25.726562 6.050781 25.792969 5.902344 25.816406 5.84375 C 25.835938 5.785156 25.898438 5.636719 25.960938 5.515625 C 26.015625 5.398438 26.0625 5.273438 26.0625 5.25 C 26.0625 5.226562 26.089844 5.15625 26.125 5.101562 C 26.160156 5.042969 26.1875 4.984375 26.1875 4.964844 C 26.1875 4.949219 26.238281 4.835938 26.296875 4.714844 C 26.355469 4.59375 26.40625 4.480469 26.40625 4.464844 C 26.40625 4.449219 25.628906 4.4375 24.585938 4.4375 L 22.757812 4.4375 Z M 11.839844 6.882812 C 11.914062 7.039062 12 7.242188 12.03125 7.328125 C 12.0625 7.414062 12.160156 7.625 12.246094 7.796875 C 12.335938 7.96875 12.421875 8.164062 12.441406 8.234375 C 12.460938 8.304688 12.550781 8.511719 12.640625 8.703125 C 12.730469 8.890625 12.816406 9.082031 12.828125 9.125 C 12.839844 9.167969 12.898438 9.300781 12.953125 9.421875 C 13.007812 9.539062 13.117188 9.78125 13.1875 9.953125 C 13.257812 10.125 13.351562 10.328125 13.390625 10.40625 C 13.429688 10.484375 13.5 10.644531 13.542969 10.765625 C 13.589844 10.882812 13.695312 11.125 13.777344 11.296875 C 13.863281 11.46875 13.945312 11.652344 13.957031 11.703125 C 13.980469 11.804688 14.039062 11.933594 14.191406 12.222656 C 14.242188 12.320312 14.304688 12.460938 14.328125 12.535156 C 14.375 12.664062 14.503906 12.960938 14.628906 13.238281 C 14.660156 13.308594 14.6875 13.375 14.6875 13.382812 C 14.6875 13.398438 14.769531 13.578125 14.871094 13.789062 C 14.972656 14 15.066406 14.214844 15.074219 14.269531 C 15.085938 14.324219 15.171875 14.523438 15.265625 14.710938 C 15.359375 14.902344 15.449219 15.117188 15.46875 15.191406 C 15.492188 15.261719 15.566406 15.449219 15.636719 15.605469 C 15.78125 15.914062 15.972656 16.339844 16.203125 16.890625 C 16.285156 17.078125 16.367188 17.257812 16.390625 17.28125 C 16.488281 17.398438 16.617188 17.8125 16.578125 17.878906 C 16.566406 17.894531 16.519531 17.90625 16.46875 17.90625 C 16.335938 17.90625 16.324219 17.960938 16.433594 18.050781 C 16.488281 18.09375 16.558594 18.171875 16.59375 18.222656 L 16.660156 18.308594 L 16.597656 18.507812 C 16.546875 18.675781 16.453125 18.894531 16.265625 19.296875 C 16.15625 19.527344 16.0625 19.757812 16.0625 19.792969 C 16.0625 19.8125 16.011719 19.925781 15.953125 20.039062 C 15.894531 20.160156 15.84375 20.277344 15.84375 20.304688 C 15.84375 20.386719 15.515625 21.035156 15.425781 21.132812 C 15.179688 21.402344 14.917969 21.324219 14.738281 20.921875 C 14.707031 20.851562 14.640625 20.71875 14.59375 20.625 C 14.542969 20.527344 14.480469 20.375 14.453125 20.28125 C 14.421875 20.1875 14.332031 19.96875 14.25 19.796875 C 14.167969 19.625 14.089844 19.449219 14.078125 19.40625 C 14.066406 19.363281 13.945312 19.085938 13.808594 18.789062 C 13.671875 18.492188 13.554688 18.210938 13.542969 18.164062 C 13.53125 18.121094 13.445312 17.933594 13.355469 17.75 C 13.265625 17.566406 13.179688 17.375 13.167969 17.324219 C 13.160156 17.273438 13.117188 17.171875 13.074219 17.09375 C 13.035156 17.015625 12.972656 16.875 12.9375 16.78125 C 12.898438 16.6875 12.832031 16.523438 12.78125 16.421875 C 12.734375 16.320312 12.683594 16.199219 12.671875 16.15625 C 12.660156 16.113281 12.636719 16.0625 12.625 16.046875 C 12.613281 16.027344 12.539062 15.859375 12.46875 15.671875 C 12.394531 15.480469 12.3125 15.292969 12.285156 15.25 C 12.257812 15.207031 12.214844 15.136719 12.195312 15.09375 C 12.089844 14.867188 12.03125 14.71875 12.03125 14.679688 C 12.03125 14.65625 12.007812 14.582031 11.972656 14.511719 C 11.789062 14.132812 11.6875 13.910156 11.6875 13.898438 C 11.6875 13.886719 11.632812 13.761719 11.570312 13.617188 C 11.5 13.476562 11.417969 13.273438 11.382812 13.167969 C 11.34375 13.0625 11.257812 12.867188 11.191406 12.730469 C 11.125 12.59375 11.023438 12.371094 10.96875 12.234375 C 10.914062 12.097656 10.804688 11.84375 10.71875 11.671875 C 10.636719 11.5 10.5625 11.320312 10.550781 11.269531 C 10.539062 11.214844 10.449219 11.011719 10.351562 10.816406 C 10.257812 10.617188 10.160156 10.398438 10.136719 10.332031 C 10.113281 10.261719 10.082031 10.195312 10.066406 10.175781 C 10.054688 10.15625 10.007812 10.054688 9.972656 9.957031 C 9.933594 9.851562 9.882812 9.734375 9.859375 9.691406 C 9.765625 9.515625 9.46875 8.851562 9.421875 8.710938 C 9.394531 8.625 9.292969 8.402344 9.199219 8.210938 C 9.105469 8.023438 9.03125 7.851562 9.03125 7.828125 C 9.03125 7.804688 8.945312 7.613281 8.84375 7.398438 C 8.742188 7.183594 8.65625 6.984375 8.65625 6.957031 C 8.65625 6.929688 8.628906 6.851562 8.59375 6.789062 C 8.558594 6.726562 8.53125 6.65625 8.53125 6.632812 C 8.53125 6.601562 8.859375 6.59375 10.117188 6.59375 L 11.707031 6.59375 Z M 11.839844 6.882812 "/>
</g>
</svg>
